<svg xmlns="http://www.w3.org/2000/svg" viewBox="0 0 88 88"><defs><style>.cls-1{fill:#005ea5;}.cls-2{fill:#fff;}.cls-3{fill:#7bbc00;}</style></defs><title>business</title><g id="Livello_2" data-name="Livello 2"><g id="Livello_1-2" data-name="Livello 1"><path class="cls-1" d="M39.26,88H3a3,3,0,0,1-3-3V3A3,3,0,0,1,3,0H39.26a3,3,0,0,1,3,3V85A3,3,0,0,1,39.26,88ZM6,82H36.26V6H6Z"/><path class="cls-1" d="M62.13,88H39.26a3,3,0,0,1-3-3V3a3,3,0,0,1,3-3H62.13a3,3,0,0,1,3,3V85A3,3,0,0,1,62.13,88ZM42.26,82H59.13V6H42.26Z"/><rect class="cls-2" x="51.34" y="22.33" width="33.66" height="62.67"/><path class="cls-1" d="M85,88H51.34a3,3,0,0,1-3-3V22.33a3,3,0,0,1,3-3H85a3,3,0,0,1,3,3V85A3,3,0,0,1,85,88ZM54.34,82H82V25.33H54.34Z"/><rect class="cls-2" x="27.17" y="22.33" width="24.17" height="62.67"/><path class="cls-1" d="M51.34,88H27.17a3,3,0,0,1-3-3V22.33a3,3,0,0,1,3-3H51.34a3,3,0,0,1,3,3V85A3,3,0,0,1,51.34,88ZM30.17,82H48.34V25.33H30.17Z"/><path class="cls-3" d="M15,29.33a1.5,1.5,0,0,1-1.5-1.5V11.39a1.5,1.5,0,0,1,3,0V27.83A1.5,1.5,0,0,1,15,29.33Z"/><path class="cls-3" d="M15,54.68a1.5,1.5,0,0,1-1.5-1.5V36.74a1.5,1.5,0,0,1,3,0V53.18A1.5,1.5,0,0,1,15,54.68Z"/><path class="cls-3" d="M76.5,36.54h-16a1.5,1.5,0,0,1,0-3h16a1.5,1.5,0,0,1,0,3Z"/><path class="cls-3" d="M76.5,46.46h-16a1.5,1.5,0,0,1,0-3h16a1.5,1.5,0,0,1,0,3Z"/><path class="cls-1" d="M43.76,85.17h-9a1.5,1.5,0,0,1-1.5-1.5v-20a1.5,1.5,0,0,1,1.5-1.5h9a1.5,1.5,0,0,1,1.5,1.5v20A1.5,1.5,0,0,1,43.76,85.17Zm-7.5-3h6v-17h-6Z"/><path class="cls-1" d="M19.5,85.17h-9A1.5,1.5,0,0,1,9,83.67v-20a1.5,1.5,0,0,1,1.5-1.5h9a1.5,1.5,0,0,1,1.5,1.5v20A1.5,1.5,0,0,1,19.5,85.17Zm-7.5-3h6v-17H12Z"/></g></g></svg>