<svg xmlns="http://www.w3.org/2000/svg" viewBox="0 0 1061.54 423.54"><defs><style>.cls-1{isolation:isolate;}.cls-2{fill:#e3e8e8;}.cls-11,.cls-16,.cls-2,.cls-30,.cls-38,.cls-5,.cls-6,.cls-7{mix-blend-mode:multiply;}.cls-3,.cls-43,.cls-46,.cls-49{fill:#d0e9ed;}.cls-10,.cls-11,.cls-12,.cls-25,.cls-26,.cls-27,.cls-28,.cls-29,.cls-3,.cls-30,.cls-31,.cls-32,.cls-33,.cls-35,.cls-36,.cls-37,.cls-39,.cls-4,.cls-40,.cls-41,.cls-43,.cls-44,.cls-45,.cls-46,.cls-47,.cls-48,.cls-5,.cls-50,.cls-51,.cls-52,.cls-54,.cls-6,.cls-8{stroke:#005ea5;stroke-miterlimit:10;}.cls-25,.cls-3{stroke-width:5px;}.cls-13,.cls-4,.cls-42,.cls-44,.cls-55,.cls-56,.cls-57{fill:#fff;}.cls-10,.cls-11,.cls-12,.cls-26,.cls-27,.cls-28,.cls-30,.cls-32,.cls-33,.cls-35,.cls-36,.cls-37,.cls-39,.cls-4,.cls-40,.cls-41,.cls-46,.cls-5,.cls-54,.cls-6,.cls-8{stroke-width:2px;}.cls-5{fill:#e7efcb;}.cls-6{fill:#cbeacc;}.cls-7{fill:#d0dddd;}.cls-8{fill:#e8f7f9;}.cls-9{fill:#cced75;}.cls-10,.cls-23,.cls-45,.cls-47{fill:none;}.cls-11,.cls-54{fill:#ede6cc;}.cls-12{fill:#bfced8;}.cls-13{opacity:0.43;}.cls-14{fill:#ced8f4;}.cls-15{fill:#d2e8f7;}.cls-16{opacity:0.65;}.cls-17,.cls-19{opacity:0.9;}.cls-18{fill:#e6f6f8;}.cls-19{fill:#bde8ec;}.cls-20{fill:#cbedf0;}.cls-21{fill:#d9f2f4;}.cls-22{fill:#f0fafb;}.cls-23{stroke:#d6f1f3;stroke-width:0;}.cls-24{fill:#fafdfe;}.cls-25{fill:#b2d7db;}.cls-26{fill:#c5db93;}.cls-27{fill:#f3e3c2;}.cls-28{fill:#ff9b81;}.cls-29{fill:#b6e3ea;}.cls-29,.cls-43{stroke-width:4px;}.cls-30,.cls-40{fill:#ced9ea;}.cls-31{fill:#e4f5f7;stroke-width:3px;}.cls-32{fill:#c8eced;}.cls-33{fill:#cfe8e4;}.cls-34{fill:#b4d1cb;}.cls-35{fill:#eaeae5;}.cls-36{fill:#fdffff;}.cls-37{fill:#b7eaed;}.cls-38{fill:#95cfd1;opacity:0.34;}.cls-39{fill:#d1f2a5;}.cls-41{fill:#cde8e6;}.cls-44,.cls-45{stroke-width:1.5px;}.cls-48{fill:#7bbc00;}.cls-50{fill:#8ec9fb;}.cls-51{fill:#b2cecd;}.cls-52{fill:#c6e0e0;}.cls-53{fill:#ceefee;}.cls-55{opacity:0.4;}.cls-56{opacity:0.2;}.cls-57{opacity:0.3;}</style></defs><title>set</title><g class="cls-1"><g id="Livello_2" data-name="Livello 2"><g id="Livello_1-2" data-name="Livello 1"><rect class="cls-2" x="570.95" y="377.82" width="462.73" height="27.48" rx="8.95" ry="8.95"/><path class="cls-3" d="M607,148.63H997a10.63,10.63,0,0,1,10.63,10.63V368.63a0,0,0,0,1,0,0H596.35a0,0,0,0,1,0,0V159.27A10.63,10.63,0,0,1,607,148.63Z"/><rect class="cls-4" x="617.68" y="172.63" width="368.67" height="186.23"/><path class="cls-5" d="M735.71,328h93.65a7.7,7.7,0,0,1,7.7,7.7v23.26a0,0,0,0,1,0,0H728a0,0,0,0,1,0,0V335.68A7.7,7.7,0,0,1,735.71,328Z"/><path class="cls-6" d="M854.08,328h103a7.7,7.7,0,0,1,7.7,7.7v23.26a0,0,0,0,1,0,0H846.39a0,0,0,0,1,0,0V335.68A7.7,7.7,0,0,1,854.08,328Z"/><path class="cls-3" d="M570.35,368.63h463.33a0,0,0,0,1,0,0v14.64a12,12,0,0,1-12,12H582.38a12,12,0,0,1-12-12V368.63a0,0,0,0,1,0,0Z"/><path class="cls-7" d="M1020.17,384.43H584.57c-6.59,0-11.93-4.73-11.93-10.56v8.78c0,5.83,5.34,10.56,11.93,10.56h435.6c6.59,0,11.93-4.73,11.93-10.56v-8.78C1032.1,379.7,1026.76,384.43,1020.17,384.43Z"/><circle class="cls-8" cx="802.02" cy="160.38" r="5"/><path class="cls-9" d="M1052.8,240.11l-2.43-1.33a1.19,1.19,0,0,1,0-2.09l2.43-1.33a1.19,1.19,0,0,0,.47-.47l1.33-2.43a1.19,1.19,0,0,1,2.09,0l1.33,2.43a1.19,1.19,0,0,0,.47.47l2.43,1.33a1.19,1.19,0,0,1,0,2.09l-2.43,1.33a1.19,1.19,0,0,0-.47.47l-1.33,2.43a1.19,1.19,0,0,1-2.09,0l-1.33-2.43A1.19,1.19,0,0,0,1052.8,240.11Z"/><line class="cls-9" x1="986.35" y1="193.3" x2="617.68" y2="193.3"/><rect class="cls-2" x="977.1" y="172.63" width="9.25" height="185.71"/><line class="cls-10" x1="985.8" y1="191.5" x2="617.68" y2="191.5"/><rect class="cls-5" x="728.02" y="210.77" width="236.74" height="70.67" rx="16.09" ry="16.09"/><rect class="cls-11" x="728.02" y="294.16" width="236.74" height="19.76" rx="4.92" ry="4.92"/><rect class="cls-12" x="630.91" y="211.21" width="55.27" height="12.75" rx="1.62" ry="1.62"/><rect class="cls-10" x="617.68" y="172.63" width="368.67" height="186.23"/><polygon class="cls-13" points="818.75 357.76 756.96 357.76 791.71 173.64 853.5 173.64 818.75 357.76"/><polygon class="cls-13" points="847.67 357.76 828.97 357.76 863.72 173.64 882.41 173.64 847.67 357.76"/><path class="cls-14" d="M1029.25,220.36l-5.7-3.12a2.79,2.79,0,0,1,0-4.89l5.7-3.12a2.79,2.79,0,0,0,1.11-1.11l3.12-5.7a2.79,2.79,0,0,1,4.89,0l3.12,5.7a2.79,2.79,0,0,0,1.11,1.11l5.7,3.12a2.79,2.79,0,0,1,0,4.89l-5.7,3.12a2.79,2.79,0,0,0-1.11,1.11l-3.12,5.7a2.79,2.79,0,0,1-4.89,0l-3.12-5.7A2.79,2.79,0,0,0,1029.25,220.36Z"/><path class="cls-9" d="M765,15.35l-4.51-2.47a2.21,2.21,0,0,1,0-3.87L765,6.54a2.21,2.21,0,0,0,.88-.88l2.47-4.51a2.21,2.21,0,0,1,3.87,0l2.47,4.51a2.21,2.21,0,0,0,.88.88L780.1,9a2.21,2.21,0,0,1,0,3.87l-4.51,2.47a2.21,2.21,0,0,0-.88.88l-2.47,4.51a2.21,2.21,0,0,1-3.87,0l-2.47-4.51A2.21,2.21,0,0,0,765,15.35Z"/><path class="cls-15" d="M75.41,136.53l-6.86-3.75a3.35,3.35,0,0,1,0-5.88l6.86-3.75a3.35,3.35,0,0,0,1.33-1.33L80.49,115a3.35,3.35,0,0,1,5.88,0l3.75,6.86a3.35,3.35,0,0,0,1.33,1.33l6.86,3.75a3.35,3.35,0,0,1,0,5.88l-6.86,3.75a3.35,3.35,0,0,0-1.33,1.33l-3.75,6.86a3.35,3.35,0,0,1-5.88,0l-3.75-6.86A3.35,3.35,0,0,0,75.41,136.53Z"/><path class="cls-9" d="M789.35,43.84l-2.43-1.33a1.19,1.19,0,0,1,0-2.09l2.43-1.33a1.19,1.19,0,0,0,.47-.47l1.33-2.43a1.19,1.19,0,0,1,2.09,0l1.33,2.43a1.19,1.19,0,0,0,.47.47l2.43,1.33a1.19,1.19,0,0,1,0,2.09L795,43.84a1.19,1.19,0,0,0-.47.47l-1.33,2.43a1.19,1.19,0,0,1-2.09,0l-1.33-2.43A1.19,1.19,0,0,0,789.35,43.84Z"/><g class="cls-16"><g class="cls-17"><g class="cls-17"><path class="cls-18" d="M494.84,294.07a2.05,2.05,0,0,0-1-1.54,9.44,9.44,0,0,0-2.55-1.16c-1.94-.57-4-.61-4.53-.81a8.72,8.72,0,0,0-4.93.73,18.49,18.49,0,0,0-5.56,3.71c-3.22,3.09-4.5,6.59-4.88,6.31-.47-.45-2.5-1-4.61-.91a11.81,11.81,0,0,0-3,.46,3.65,3.65,0,0,0-1.84,1.09,12,12,0,0,0-1.56,3.24,13.29,13.29,0,0,0-.53,3.47,12.24,12.24,0,0,0,1.69,6.29c1,1.76,1.63,1.89,1.53,2.69,0,.16.64.38,1.46.77a11.05,11.05,0,0,1,2.69,1.69A9.93,9.93,0,0,1,468.4,322a3.38,3.38,0,0,0,1.47,1.56c1,.74,2.75,2.33,4.59,3.54a15.89,15.89,0,0,0,4.86,2.28c2,.46,3.47.53,4.7.81a11.89,11.89,0,0,1,1.81.46c.6.15,1.22.44,1.93.67a5.53,5.53,0,0,0,3.12.41l1.53-.27a15.55,15.55,0,0,1,1.62-.31c2.39-.54,3.81-1.62,5.84-2.91a10.61,10.61,0,0,0,5.14-4.75,1.68,1.68,0,0,0,.06-1c-.11-.32.26-.85.3-1.2a13.72,13.72,0,0,1,.93-1.25c.32-.42.62-.85.92-1.3a5.9,5.9,0,0,0,.7-1.42,3.63,3.63,0,0,0,.23-1.55c0-.6-.55-1.45-1.11-1.27a38.65,38.65,0,0,0-3.78,1.38c-1.18.46-2.2.9-3.25,1.23-1.87.62-2.32,1.58-3.33,2.34a2,2,0,0,1-1.34.31,4.91,4.91,0,0,1-1.76-.58,9.59,9.59,0,0,1-1.81-1.31,15.14,15.14,0,0,1-1.66-1.8c-.19-.25-.4-.52-.6-.81l-.52-.76v0l0,.06c0,.07,0,0,0-.12a1,1,0,0,1,0-.22,1.65,1.65,0,0,1,0,.24c0,.15,0,.13,0,.05l0-.05c.06-.08,0,0,0,0s-.15.06-.08,0l.16,0h0l-.37,0a3.08,3.08,0,0,1-2-.69c-.3-.35-.18-.68.27-.67a4.33,4.33,0,0,1,1.17.66,8.72,8.72,0,0,1,.8.66l.13.12h0l-.06-.08-.11-.2-.15-.3q-.14-.3-.25-.6a5.53,5.53,0,0,1-.29-1.12,3.8,3.8,0,0,1,0-1,2.75,2.75,0,0,1,.2-.86c.19-.2.44.48.63.44.45-.34,1.13-1.89,2.11-2.4,1.51-.19,2.48-.14,3-.32s.65-.36.65-.25c.3.25-.52,1.32-.48,1.79a.85.85,0,0,0,.74.39,8.65,8.65,0,0,0,1.27,0,9.33,9.33,0,0,1,1,0,7.48,7.48,0,0,1,.93.14,4.51,4.51,0,0,1,1.68.71,2.77,2.77,0,0,1,1,1.26,2,2,0,0,1-.14,1.59c.29-.14.69-.23.72-.38a15.88,15.88,0,0,0,1.52-5.42,6.69,6.69,0,0,0-2.17-5.56,5.89,5.89,0,0,1-1.48-.54,7.52,7.52,0,0,0-2.21-1.17,2.44,2.44,0,0,1-.79-1,18,18,0,0,1-.68-1.79A14.25,14.25,0,0,1,494.84,294.07Z"/><path class="cls-19" d="M496.71,319.5c1-.76,1.47-1.73,3.35-2.35,1.06-.33,2.07-.77,3.26-1.23a38.26,38.26,0,0,1,3.78-1.37c.56-.18,1.09.68,1.11,1.28a3.69,3.69,0,0,1-.24,1.55,5.81,5.81,0,0,1-.7,1.42c-.56.91-1.3,1.7-1.86,2.55-.05.34-.41.88-.31,1.2a1.68,1.68,0,0,1-.07,1,10.66,10.66,0,0,1-5.17,4.75c-2,1.29-3.48,2.37-5.87,2.9-.58.07-1.11.2-1.63.3l-1.54.27a5.59,5.59,0,0,1-3.13-.42c-.71-.24-1.33-.52-1.93-.68a12,12,0,0,0-1.81-.47c-1.24-.29-2.68-.37-4.72-.83a16.08,16.08,0,0,1-4.87-2.31c-1.84-1.22-3.54-2.83-4.59-3.57a3.43,3.43,0,0,1-1.46-1.57,9.86,9.86,0,0,0-1.25-1.88l.53-.89c.34-.58.91-1.45,1.62-2.47a16,16,0,0,0,7.83,6.54,11.33,11.33,0,0,0,8,.15,9.69,9.69,0,0,0,6.65.19A9.45,9.45,0,0,0,496.71,319.5Z"/><path class="cls-20" d="M469.37,319.36l-.29-.35a7.66,7.66,0,0,1-.68-1,14.27,14.27,0,0,1-.8-1.46,13.42,13.42,0,0,1-.6-1.75,4.93,4.93,0,0,1,.1-3.22c.41-.79,1.17-1.08,2.45-.61,0,0,.73.62,1.87,1.45.56.41,1.29.87,2,1.32A21.87,21.87,0,0,0,475.9,315a22.65,22.65,0,0,0,4.87,1.54l.95.18.79.14a1.63,1.63,0,0,1,.87.36,3.53,3.53,0,0,0,1.38,1.16,2.57,2.57,0,0,0-.11.36,2.16,2.16,0,0,0,0,.8,1.29,1.29,0,0,0,.45.78,1.15,1.15,0,0,0,1.08.09l.26,0c.16,0,.41-.08.66-.12a7.44,7.44,0,0,0,1.73-.64c1.16-.54,1.72-1.26,2.27-.45l1.15.11a10.34,10.34,0,0,1,2.3.24s.21.12.55.26a5.69,5.69,0,0,0,1.3.4c1,.2,2.14,0,2.31-.84l.89-.41c.48-.27,1.22-.63,1.84-1a6,6,0,0,1,1.76-.8c.46-.06.83.22.75,1.11l.05.36a6.24,6.24,0,0,1,.07.89,7.81,7.81,0,0,1-.18,2.12l-.36.58c-.25.36-.63.86-1.1,1.43a15.2,15.2,0,0,1-4.19,3.36,13,13,0,0,1-5.07,1.53,4.29,4.29,0,0,1-2.71-.42l-.64-.14-.73-.14-.93-.24a33,33,0,0,1-4.92-1.73c-1.84-.78-3.74-1.79-6-2.89S472.54,320.58,469.37,319.36Z"/><path class="cls-21" d="M467.86,319.38a6.54,6.54,0,0,1-1.08-.91,9.48,9.48,0,0,1-1.91-2.65,6.89,6.89,0,0,1-.73-3.76,4.09,4.09,0,0,1,2.1-3.16,12.72,12.72,0,0,1,4.44-3.65,6.55,6.55,0,0,1,3.52-.71,2.55,2.55,0,0,1,2.15,1.58l.27.62c.18.39.41.94.76,1.57a15.48,15.48,0,0,0,3.18,4.12,11.38,11.38,0,0,0,4.36,2.51,13.25,13.25,0,0,0,2.59.34s0,0,.25-.07a4.42,4.42,0,0,0,.53-.26l.42-.26.33-.23h0v0l0,0h0l-.13.22a4.57,4.57,0,0,0-.56,1.65c-.12.84.23,1.69.52,1.32l.06.33a2.92,2.92,0,0,0,.2.64c.18.41.49.7.6.16a2.8,2.8,0,0,1-.56.72,4,4,0,0,1-1.82,1,3.25,3.25,0,0,1-2.23-.15c-.58-.32-.84-.83-.51-1.39v-.15a1.5,1.5,0,0,0,0-.37,1.26,1.26,0,0,0-.62-.82,4.63,4.63,0,0,0-.85-.35c-.4-.11-.84-.23-1.47-.39a30.38,30.38,0,0,1-5.44-1.93s-.45-.07-1.16-.14a14.6,14.6,0,0,0-2.66,0,5.52,5.52,0,0,0-2.92,1A4.37,4.37,0,0,0,467.86,319.38Z"/><path class="cls-22" d="M460,313.72c-.44-.78-.93-1.62-1.36-2.51a14.71,14.71,0,0,1-1-2.85,16.68,16.68,0,0,1,.58-3.76,8.52,8.52,0,0,1,2.31-3.77c2.07-1.79,4.24-4.07,6.68-5.81s5.1-2.9,7.4-2.68a4.39,4.39,0,0,0,1.72-.39c.09-.2.58-.68.68-.86a40.34,40.34,0,0,1,5.21-2.14,7.19,7.19,0,0,1,4.33-.47,12,12,0,0,1,4,1.64l2.13,1.12a14.77,14.77,0,0,1,2.07,1.24,4.35,4.35,0,0,1,1.57,3.13c.2,1.12.3,2.21,1,2.87A13.82,13.82,0,0,0,501,301a6.4,6.4,0,0,1,3.13,3.21,9.81,9.81,0,0,1,.33,5.24c-.28.67-.54,1.32-.77,1.94a11.8,11.8,0,0,1-.9,1.77,3.54,3.54,0,0,1-1.57.87c-.39-.08-.16-.59-.41-.87s-.09-.71.27-1.07a8.15,8.15,0,0,0,1-1.12,1.72,1.72,0,0,0,0-1.4c-.13-.48-.4-.92-.55-1.41a5.59,5.59,0,0,1,.3-1.51c.36-.92-.63-1.37-1.35-1.85-.55-.22-.75-.73-1-1.25a3.22,3.22,0,0,0-1-1.41,3.72,3.72,0,0,0-2.14-.52c-.71,0-1.33-.05-1.72-.65.32.52-.68.14-1.67-.24s-2-.73-1.46-.82c-.11.1-.34-.53-.35-.94.06-.25.05-.67.18-.77,1-.79,1.29-2.39,1.92-3.56a14.08,14.08,0,0,0-2.18-.73c-.59-.15-1.23-.32-1.82-.52a7.34,7.34,0,0,1-1.57-.64,10.42,10.42,0,0,0-2-1.18,4.18,4.18,0,0,0-2.34-.37c-.42.19-.47.87-.86,1.07a9.09,9.09,0,0,0-2,1.56,21.08,21.08,0,0,0-2.88,3.49c-.43.66-.8,1.34-1.15,2L475.7,301a6.1,6.1,0,0,1-1,2c-.65.27-1.9.44-2.32-.07-1.4-1.25-2.83-.56-4.43-.83-.4-.12-.64-.69-1-.82-1.2-.18-2.84.06-3.55,1A8.77,8.77,0,0,0,460.8,308,29,29,0,0,0,460,313.72Z"/><path class="cls-23" d="M489,314.56a1.24,1.24,0,0,1,0-.19,1,1,0,0,1,0-.16,1,1,0,0,1,0,.19,1.18,1.18,0,0,1,0,.17c0,.06,0,0,0-.08l0,0s.05,0,0,0l-.09,0,.14,0"/><path class="cls-24" d="M484.72,287.23a19.06,19.06,0,0,1,5.1,1.09,16.33,16.33,0,0,1,2.88,1.32,7.61,7.61,0,0,1,1.82,1.34,17.43,17.43,0,0,1,4.53,7.51.64.64,0,0,0,.58.37,3,3,0,0,1,2.09.82,8.9,8.9,0,0,0,1.72,1.33c.52.3,1.27.38,1.59,1a9.41,9.41,0,0,1,.18,9.29,8,8,0,0,1-1.26,1.56c-.48.47-1,.9-1.53,1.32a1.83,1.83,0,0,1-.94.37c-.27,0-.13-.31-.24-.48.17-.22.55-.42.77-.74.47-.6.44-1.32.91-2a8.09,8.09,0,0,0,1.13-2.24,3.31,3.31,0,0,0-.11-1.55,8.82,8.82,0,0,0-2.64-5.12c-1.22.14-1.57-1.14-2.31-1.7-.2-.19-.27-.53-.49-.82a7.76,7.76,0,0,0-1.07-.63,1.32,1.32,0,0,1-.75-.85,10.93,10.93,0,0,0-.88-2.79,9.44,9.44,0,0,0-1.67-2.51,7.69,7.69,0,0,0-1.59-1.27c-.37-.24-.8-.51-1.25-.75s-.94-.46-1.44-.67a15.9,15.9,0,0,0-5.2-1.3,8.71,8.71,0,0,0-3.58.64c-1.13.45-2.22.93-3.35,1.32-.09,0,0-.71.94-1.66a7.61,7.61,0,0,1,2.17-1.4A10.65,10.65,0,0,1,484.72,287.23Z"/></g></g></g><path class="cls-2" d="M555,405.3c0,10.07-12.5,18.24-67,18.24-57,0-67-8.17-67-18.24s30-18.24,67-18.24S555,395.22,555,405.3Z"/><rect class="cls-3" x="250.02" y="10.94" width="478" height="327.86" rx="20.87" ry="20.87"/><path class="cls-25" d="M270.89,10.94H707.14A20.87,20.87,0,0,1,728,31.82V290a0,0,0,0,1,0,0H250a0,0,0,0,1,0,0V31.82A20.87,20.87,0,0,1,270.89,10.94Z"/><rect class="cls-4" x="273.53" y="31.85" width="430.98" height="241.21"/><line class="cls-10" x1="704.51" y1="53.44" x2="273.53" y2="53.44"/><circle class="cls-26" cx="310.64" cy="43.3" r="3.38"/><circle class="cls-27" cx="301.52" cy="43.3" r="3.38"/><circle class="cls-28" cx="292.39" cy="43.3" r="3.38"/><path class="cls-29" d="M536.52,338.8s-9.48,43.78,13.16,64.45a2.65,2.65,0,0,1-1.12,4.51,227.65,227.65,0,0,1-57.54,7h-6a227.65,227.65,0,0,1-57.54-7,2.65,2.65,0,0,1-1.12-4.51c22.64-20.66,13.16-64.45,13.16-64.45"/><path class="cls-7" d="M536.52,338.8h-97s.32,1.47.7,4c8.67,3.28,26.82,5.53,47.8,5.53s39.13-2.25,47.8-5.53"/><rect class="cls-30" x="371.73" y="72.71" width="277.17" height="70.67" rx="16.09" ry="16.09"/><circle class="cls-31" cx="489.02" cy="314.5" r="13"/><path class="cls-2" d="M728,149.45V316.93a20.87,20.87,0,0,1-20.87,20.87H596.35v12H726a22,22,0,0,0,22.06-22V149.45Z"/><rect class="cls-2" x="273.53" y="29.85" width="9.25" height="241.21"/><rect class="cls-2" x="694.88" y="29.85" width="9.25" height="241.21"/><rect class="cls-2" x="617.68" y="337.8" width="9.25" height="21.71"/><rect class="cls-32" x="371.73" y="156.1" width="277.17" height="19.76" rx="4.92" ry="4.92"/><path class="cls-33" d="M371.73,272.18v-80a4.92,4.92,0,0,1,4.92-4.92H644a4.92,4.92,0,0,1,4.92,4.92v80"/><path class="cls-34" d="M371.73,202.52V188c2,2,2.2-1.45,4.92-1.45H644c2.72,0,4.92,4.83,4.92,5.62v10.33"/><rect class="cls-12" x="289.02" y="73.15" width="64.71" height="12.75" rx="1.62" ry="1.62"/><rect class="cls-35" x="289.02" y="101.33" width="64.71" height="12.75" rx="1.62" ry="1.62"/><rect class="cls-35" x="289.02" y="127.66" width="64.71" height="12.75" rx="1.62" ry="1.62"/><rect class="cls-35" x="289.02" y="153.98" width="64.71" height="12.75" rx="1.62" ry="1.62"/><rect class="cls-35" x="289.02" y="180.3" width="64.71" height="12.75" rx="1.62" ry="1.62"/><rect class="cls-35" x="289.02" y="206.62" width="64.71" height="12.75" rx="1.62" ry="1.62"/><rect class="cls-35" x="289.02" y="232.95" width="64.71" height="12.75" rx="1.62" ry="1.62"/><path class="cls-10" d="M371.73,272.18v-80a4.92,4.92,0,0,1,4.92-4.92H644a4.92,4.92,0,0,1,4.92,4.92v80"/><rect class="cls-2" x="54.65" y="386.89" width="266.36" height="24.49" rx="8.95" ry="8.95"/><rect class="cls-3" x="127.02" y="116.1" width="190.67" height="284" rx="8.41" ry="8.41"/><rect class="cls-36" x="135.85" y="138.9" width="173" height="234.64"/><rect class="cls-2" x="135.85" y="138.9" width="8.55" height="234.64"/><rect class="cls-2" x="299.62" y="138.9" width="8.55" height="234.64"/><line class="cls-10" x1="135.85" y1="158.26" x2="308.85" y2="158.26"/><polyline class="cls-10" points="151.02 144.1 146.77 147.93 150.85 151.68"/><path class="cls-37" d="M213.91,134h16.84c1.71,0,3.09-.89,3.09-2h0c0-1.1-1.39-2-3.09-2H213.91c-1.71,0-3.09.89-3.09,2h0C210.81,133.12,212.2,134,213.91,134Z"/><circle class="cls-10" cx="222.35" cy="125.64" r="2.25"/><circle class="cls-10" cx="222.35" cy="386.89" r="6.08"/><path class="cls-38" d="M222.35,388.53a6.08,6.08,0,0,1-5.66-3.86,6.08,6.08,0,1,0,11.32,0A6.08,6.08,0,0,1,222.35,388.53Z"/><path class="cls-2" d="M335.35,338.8V129a8.41,8.41,0,0,0-8.41-8.41h-9.26V338.8Z"/><rect class="cls-39" x="180.5" y="216.6" width="81.5" height="20.57" rx="3.56" ry="3.56"/><rect class="cls-40" x="153.48" y="247.65" width="135.54" height="39.66"/><rect class="cls-40" x="153.48" y="297.33" width="135.54" height="39.66"/><rect class="cls-40" x="153.48" y="347.02" width="135.54" height="26.51"/><circle class="cls-41" cx="220.1" cy="187.27" r="20.91"/><ellipse class="cls-42" cx="220.1" cy="180.3" rx="5" ry="6.97"/><path class="cls-42" d="M222.35,185c.75,4,1.25,4.5,3.75,5.5s5.17,1.33,5.83,4.17,1.36,8.81,1.36,8.81-7.6,4.69-13.19,4.69V185Z"/><path class="cls-42" d="M217.85,185c-.75,4-1.25,4.5-3.75,5.5s-5.17,1.33-5.83,4.17-1.36,8.81-1.36,8.81,7.6,4.69,13.19,4.69V185Z"/><circle class="cls-10" cx="220.1" cy="187.27" r="20.91"/><ellipse class="cls-42" cx="215.33" cy="180.58" rx="1.06" ry="1.81"/><ellipse class="cls-42" cx="225.1" cy="180.58" rx="1.06" ry="1.81"/><path class="cls-42" d="M215.33,182.39a15.75,15.75,0,0,1,.56,3.56l.68-.73v1.48l.32-.58.21,1,2.85-.46,3.42.61-.09-1.59,1.09-.47.48-2.25.25.4.08-1.5.27-2.81.46-.15-.71-1.75h.52s-.79-.69-.79-1h.44l-2.58-2.35.63-.45h-2.19v-.65s-2,.56-2,.5a5.52,5.52,0,0,0-1-.15l.06.3-1.62.37.25.21-1.44,1.21.35,0-1.21,2.25h.44l-.23,2.08Z"/><path class="cls-9" d="M46.28,170.46,40,167a.78.78,0,0,1,0-1.37l6.25-3.42a.78.78,0,0,0,.31-.31L50,155.68a.78.78,0,0,1,1.37,0l3.42,6.25a.78.78,0,0,0,.31.31l6.25,3.42a.78.78,0,0,1,0,1.37l-6.25,3.42a.78.78,0,0,0-.31.31L51.39,177A.78.78,0,0,1,50,177l-3.42-6.25A.78.78,0,0,0,46.28,170.46Z"/><path class="cls-9" d="M4.18,278,.42,275.9a.82.82,0,0,1,0-1.43l3.75-2.05a.82.82,0,0,0,.32-.32l2.05-3.75a.82.82,0,0,1,1.43,0L10,272.09a.82.82,0,0,0,.32.32l3.75,2.05a.82.82,0,0,1,0,1.43L10.36,278a.82.82,0,0,0-.32.32L8,282a.82.82,0,0,1-1.43,0L4.5,278.28A.82.82,0,0,0,4.18,278Z"/><rect class="cls-43" x="57.97" y="226.34" width="86.43" height="177.63" rx="12.92" ry="12.92"/><path class="cls-2" d="M141,224.36a12.92,12.92,0,0,1,12.92,12.91v151.8A12.92,12.92,0,0,1,141,402H70.32a12.86,12.86,0,0,1-5.71-1.33h66.88a12.92,12.92,0,0,0,12.92-12.92V235.94a12.9,12.9,0,0,0-7.2-11.58Z"/><rect class="cls-44" x="66.16" y="247.13" width="70.06" height="136.04"/><line class="cls-45" x1="66.16" y1="257.15" x2="136.22" y2="257.15"/><circle class="cls-37" cx="101.6" cy="235.81" r="2.42"/><rect class="cls-2" x="66.16" y="247.77" width="2.61" height="132.09"/><rect class="cls-2" x="133.61" y="243.81" width="2.61" height="136.04"/><circle class="cls-46" cx="99.18" cy="392.63" r="6.5"/><path class="cls-2" d="M99.18,395A6.5,6.5,0,0,1,93,390.57a6.5,6.5,0,1,0,12.32,0A6.5,6.5,0,0,1,99.18,395Z"/><polyline class="cls-47" points="75.39 250.13 72.93 252.36 75.3 254.53"/><path class="cls-48" d="M122.24,282.94a2.49,2.49,0,0,1-.12-.73c0-1.06,0-1.88,0-2.5v0c0-.06,0-.11,0-.17V268.88a4.82,4.82,0,0,0-4.82-4.82H76.67a4.82,4.82,0,0,0-4.82,4.82v10.63a4.82,4.82,0,0,0,4.82,4.82h40.62a4.8,4.8,0,0,0,3.14-1.16h.25l.17.31a2.6,2.6,0,0,0,1,.61,5.48,5.48,0,0,0,1.35.28A2.69,2.69,0,0,1,122.24,282.94Z"/><circle class="cls-49" cx="128.41" cy="281.93" r="3.12"/><path class="cls-48" d="M122.24,328.06a2.49,2.49,0,0,1-.12-.73c0-1.06,0-1.88,0-2.5v0c0-.06,0-.11,0-.17v-7.31a4.82,4.82,0,0,0-4.82-4.82H76.67a4.82,4.82,0,0,0-4.82,4.82v7.31a4.82,4.82,0,0,0,4.82,4.82h40.62a4.8,4.8,0,0,0,3.14-1.16h.25l.17.31a2.6,2.6,0,0,0,1,.61,5.48,5.48,0,0,0,1.35.28A2.69,2.69,0,0,1,122.24,328.06Z"/><circle class="cls-49" cx="128.41" cy="327.05" r="3.12"/><path class="cls-50" d="M126.26,291.55H83.83a4,4,0,0,0-4,4v5.27s0,.08,0,.12l0,0c0,.52,0,1.2,0,2.09a2.06,2.06,0,0,1-.1.61,2.25,2.25,0,0,1-.81,1.21,4.58,4.58,0,0,0,1.12-.24,2.18,2.18,0,0,0,.85-.51l.14-.26h.23a4,4,0,0,0,2.6,1h42.43a4,4,0,0,0,4-4v-5.27A4,4,0,0,0,126.26,291.55Z"/><circle class="cls-49" cx="74.67" cy="301.35" r="3.12"/><rect class="cls-51" x="66.16" y="340.58" width="70.06" height="31.34"/><rect class="cls-52" x="66.16" y="348.1" width="70.06" height="33.82"/><rect class="cls-37" x="89.45" y="239.06" width="24.2" height="3.65" rx="1.82" ry="1.82"/><rect class="cls-53" x="68.51" y="349.85" width="6.15" height="8.17"/><rect class="cls-53" x="76.85" y="349.85" width="6.15" height="8.17"/><rect class="cls-53" x="85.18" y="349.85" width="6.15" height="8.17"/><rect class="cls-53" x="93.51" y="349.85" width="6.15" height="8.17"/><rect class="cls-53" x="101.85" y="349.85" width="6.15" height="8.17"/><rect class="cls-53" x="110.18" y="349.85" width="6.15" height="8.17"/><rect class="cls-53" x="118.51" y="349.85" width="6.15" height="8.17"/><rect class="cls-53" x="126.85" y="349.85" width="6.15" height="8.17"/><rect class="cls-53" x="68.51" y="359.52" width="6.15" height="8.17"/><rect class="cls-53" x="76.85" y="359.52" width="6.15" height="8.17"/><rect class="cls-53" x="85.18" y="359.52" width="6.15" height="9.67"/><rect class="cls-53" x="93.51" y="359.52" width="6.15" height="9.67"/><rect class="cls-53" x="101.85" y="359.52" width="6.15" height="9.67"/><rect class="cls-53" x="110.18" y="359.52" width="6.15" height="9.67"/><rect class="cls-53" x="118.51" y="359.52" width="6.15" height="8.17"/><rect class="cls-53" x="126.85" y="359.52" width="6.15" height="8.17"/><rect class="cls-53" x="68.51" y="369.18" width="6.15" height="8.17"/><rect class="cls-53" x="76.85" y="369.18" width="6.15" height="8.17"/><rect class="cls-53" x="85.18" y="374.64" width="31.15" height="3.24"/><rect class="cls-53" x="118.51" y="369.18" width="6.15" height="8.17"/><rect class="cls-53" x="126.85" y="369.18" width="6.15" height="8.17"/><line class="cls-54" x1="648.89" y1="202.52" x2="371.73" y2="202.52"/><polygon class="cls-55" points="487.29 272.18 425.5 272.18 469.76 32.85 531.55 32.85 487.29 272.18"/><polygon class="cls-55" points="516.21 272.18 497.51 272.18 541.77 32.85 560.47 32.85 516.21 272.18"/><polygon class="cls-56" points="227.18 372.64 165.39 372.64 208.31 139.84 270.1 139.84 227.18 372.64"/><polygon class="cls-57" points="92.12 381.33 66.75 381.33 91.58 247.95 116.96 247.95 92.12 381.33"/><polygon class="cls-55" points="108.32 381.33 96.48 381.33 121.31 247.95 133.15 247.95 108.32 381.33"/><polygon class="cls-55" points="256.1 372.64 237.4 372.64 280.32 139.84 299.01 139.84 256.1 372.64"/></g></g></g></svg>