<svg xmlns="http://www.w3.org/2000/svg" viewBox="0 0 82.72 67.43"><defs><style>.cls-1{fill:#005ea5;}.cls-2{fill:#7fb802;}</style></defs><title>student</title><g id="Livello_2" data-name="Livello 2"><g id="Livello_1-2" data-name="Livello 1"><path class="cls-1" d="M41.37,45.06a11.07,11.07,0,0,1-5.48-1.44l-33.3-19a5.13,5.13,0,0,1,.51-9.17L37,.9a11.1,11.1,0,0,1,8.8,0h0L79.63,15.65a5.13,5.13,0,0,1,.48,9.17L46.82,43.63A11.07,11.07,0,0,1,41.37,45.06ZM7.08,20.31,38.86,38.4a5.09,5.09,0,0,0,5,0l31.77-18-32.27-14h0a5.09,5.09,0,0,0-4,0Z"/><path class="cls-1" d="M42.49,67.43c-7.85,0-17-2-27.09-7.94A10.93,10.93,0,0,1,10,50.09V27.61h6V50.09a4.9,4.9,0,0,0,2.41,4.22c22.64,13.27,39.83,4.64,46.17.31a4.83,4.83,0,0,0,2.09-4v-23h6v23a10.83,10.83,0,0,1-4.71,9A45.66,45.66,0,0,1,42.49,67.43Z"/><path class="cls-1" d="M3,51a3,3,0,0,1-3-3V19.94a3,3,0,1,1,6,0V48A3,3,0,0,1,3,51Z"/><path class="cls-2" d="M3,63.06a3,3,0,0,1-3-3V57.52a3,3,0,1,1,6,0v2.54A3,3,0,0,1,3,63.06Z"/></g></g></svg>