<svg xmlns="http://www.w3.org/2000/svg" viewBox="0 0 88 77.83"><defs><style>.cls-1{fill:#005ea5;}.cls-2{fill:#7fb802;}</style></defs><title>worker</title><g id="Livello_2" data-name="Livello 2"><g id="Livello_1-2" data-name="Livello 1"><path class="cls-1" d="M76.8,77.83H11.2A11.21,11.21,0,0,1,0,66.63V28a11.21,11.21,0,0,1,11.2-11.2H76.8A11.21,11.21,0,0,1,88,28V66.63A11.21,11.21,0,0,1,76.8,77.83Zm-65.6-55A5.2,5.2,0,0,0,6,28V66.63a5.2,5.2,0,0,0,5.2,5.2H76.8a5.2,5.2,0,0,0,5.2-5.2V28a5.2,5.2,0,0,0-5.2-5.2Z"/><path class="cls-1" d="M64.61,19.79h-6V11.2A5.2,5.2,0,0,0,53.41,6H34.59a5.2,5.2,0,0,0-5.2,5.2v8.59h-6V11.2A11.21,11.21,0,0,1,34.59,0H53.41a11.21,11.21,0,0,1,11.2,11.2Z"/><path class="cls-1" d="M85,48.81H5.33a1.5,1.5,0,1,1,0-3H85a1.5,1.5,0,0,1,0,3Z"/><path class="cls-2" d="M66.67,54.33a3,3,0,0,1-3-3V40.67a3,3,0,0,1,6,0V51.33A3,3,0,0,1,66.67,54.33Z"/><path class="cls-2" d="M21.33,54.33a3,3,0,0,1-3-3V40.67a3,3,0,0,1,6,0V51.33A3,3,0,0,1,21.33,54.33Z"/></g></g></svg>